<svg aria-hidden="true" style="position: absolute; width: 0; height: 0; overflow: hidden;" version="1.1" xmlns="http://www.w3.org/2000/svg" xmlns:xlink="http://www.w3.org/1999/xlink">
<defs>
<symbol id="icon-Ae" viewBox="0 0 32 32">
<path fill="#bc85f3" style="fill: var(--color1, #bc85f3)" d="M32 0h-32v32h32v-32z"></path>
<path fill="#252653" style="fill: var(--color2, #252653)" d="M29.318 2.682h-26.636v26.636h26.636v-26.636z"></path>
<path fill="#bc85f3" style="fill: var(--color1, #bc85f3)" d="M12.865 19.673l1.115 3.707h3.131l-4.446-14.921c-0.008-0.027-0.029-0.046-0.072-0.046l-3.678-0.010c-0.143 0-0.147 0.075-0.134 0.216 0.045 0.514 0.021 0.801-0.085 1.203l-3.941 13.561 2.969-0.004 0.924-3.707 4.218 0.002zM12.332 16.985h-3.048l1.478-6.006 1.569 6.006zM20.762 18.469l5.746 0.008c0.362-0.466 0.428-1.342 0.418-1.916-0.039-2.33-1.574-4.56-4.344-4.575-4.652-0.027-5.533 5.892-3.949 9.306 0.498 1.074 1.499 1.756 2.674 2.080 0.536 0.148 1.104 0.223 1.679 0.225 1.137 0.004 2.293-0.273 3.221-0.805 0.014-0.008 0.039-0.008 0.041-0.025v-0.067l-0.002-1.929c0-0.087-0.066-0.137-0.165-0.106-1.174 0.356-5.153 1.492-5.337-2.089-0.002-0.027-0.008-0.108 0.019-0.108zM23.642 16.536h-2.926c0.014-1.565 0.728-2.453 1.83-2.457 1.001-0.004 1.638 0.695 1.669 2.42 0 0.079 0 0.037 0 0.037h-0.573z"></path>
</symbol>
<symbol id="icon-Ai" viewBox="0 0 32 32">
<path fill="#ff7c00" style="fill: var(--color3, #ff7c00)" d="M32 0h-32v32h32v-32z"></path>
<path fill="#261300" style="fill: var(--color4, #261300)" d="M29.318 2.682h-26.636v26.636h26.636v-26.636z"></path>
<path fill="#ff7c00" style="fill: var(--color3, #ff7c00)" d="M23.984 12.818h-2.527c-0.065 0-0.118 0.053-0.118 0.119v10.438c0 0.066 0.053 0.119 0.118 0.119h2.527c0.065 0 0.118-0.053 0.118-0.119v-10.438c0-0.065-0.053-0.119-0.118-0.119z"></path>
<path fill="#ff7c00" style="fill: var(--color3, #ff7c00)" d="M22.72 11.407c0.811 0 1.468-0.632 1.468-1.413s-0.657-1.413-1.468-1.413c-0.811 0-1.468 0.632-1.468 1.413s0.657 1.413 1.468 1.413z"></path>
<path fill="#ff7c00" style="fill: var(--color3, #ff7c00)" d="M15.878 19.761l1.036 3.452c0.054 0.204 0.159 0.254 0.302 0.252h2.653c0.205 0.002 0.219-0.060 0.188-0.198l-4.381-14.705c-0.008-0.027-0.029-0.046-0.070-0.046l-3.674-0.010c-0.145 0-0.147 0.075-0.134 0.216 0.045 0.512 0.021 0.799-0.087 1.2l-3.879 13.353c-0.041 0.127-0.031 0.189 0.134 0.191l2.504-0.002c0.265-0.008 0.279-0.081 0.325-0.214l0.868-3.489h4.216zM15.342 17.077h-3.042l1.474-6 1.567 6z"></path>
</symbol>
<symbol id="icon-Figma" viewBox="0 0 22 32">
<path fill="#0acf83" style="fill: var(--color5, #0acf83)" d="M5.333 32c2.944 0 5.333-2.389 5.333-5.333v-5.333h-5.333c-2.944 0-5.333 2.389-5.333 5.333s2.389 5.333 5.333 5.333z"></path>
<path fill="#a259ff" style="fill: var(--color6, #a259ff)" d="M0 16c0-2.944 2.389-5.333 5.333-5.333h5.333v10.667h-5.333c-2.944 0-5.333-2.389-5.333-5.333z"></path>
<path fill="#f24e1e" style="fill: var(--color7, #f24e1e)" d="M0 5.333c0-2.944 2.389-5.333 5.333-5.333h5.333v10.667h-5.333c-2.944 0-5.333-2.389-5.333-5.333z"></path>
<path fill="#ff7262" style="fill: var(--color8, #ff7262)" d="M10.667 0h5.333c2.944 0 5.333 2.389 5.333 5.333s-2.389 5.333-5.333 5.333h-5.333v-10.667z"></path>
<path fill="#1abcfe" style="fill: var(--color9, #1abcfe)" d="M21.333 16c0 2.944-2.389 5.333-5.333 5.333s-5.333-2.389-5.333-5.333c0-2.944 2.389-5.333 5.333-5.333s5.333 2.389 5.333 5.333z"></path>
</symbol>
<symbol id="icon-Ps" viewBox="0 0 32 32">
<path fill="#87bcf6" style="fill: var(--color10, #87bcf6)" d="M32 0h-32v32h32v-32z"></path>
<path fill="#252653" style="fill: var(--color2, #252653)" d="M29.318 2.682h-26.636v26.636h26.636v-26.636z"></path>
<path fill="#87bcf6" style="fill: var(--color10, #87bcf6)" d="M23.725 12.581c-2.37-1.203-6.449-0.62-6.449 2.517 0 2.336 1.607 3.256 3.571 4.028 2.791 1.096 0.079 3.169-3.329 1.026 0 0-0.122-0.060-0.182 0s-0.060 0.121-0.060 0.183c0 0.060 0 2.251 0 2.251 1.191 0.614 2.080 0.926 3.455 0.911 4.435-0.046 5.074-4.319 2.715-5.963-0.428-0.3-1.574-0.897-1.935-1.036-1.875-0.72-1.716-1.743-1.121-2.259 0.658-0.572 2.481 0.293 3.248 0.776 0.465 0.289 0.542-0.071 0.54-0.387l-0.006-1.496c0-0.356-0.122-0.385-0.447-0.551zM10.028 16.317v-5.48c0-0.027 0.095-0.121 0.12-0.121 2.308-0.119 3.621 0.335 3.738 2.815 0.134 2.846-2.237 2.906-3.858 2.906v-0.121zM7.245 8.707v14.732h2.783v-4.748c3.42 0.245 6.505-0.988 6.505-4.966 0-1.604-0.496-3.219-1.673-4.194-1.644-1.365-5.486-1.061-7.615-0.824z"></path>
</symbol>
<symbol id="icon-Vector" viewBox="0 0 32 32">
<path fill="#e5e5e5" style="fill: var(--color11, #e5e5e5)" d="M8.51 31.534c-0.776 0.605-1.569 0.621-2.378 0.050s-1.079-1.326-0.81-2.267l2.884-9.319-7.337-5.188c-0.81-0.571-1.054-1.327-0.733-2.267 0.32-0.94 0.969-1.41 1.947-1.41h9.058l2.935-9.672c0.169-0.47 0.431-0.832 0.785-1.084 0.354-0.251 0.733-0.377 1.138-0.377s0.784 0.126 1.137 0.377c0.355 0.253 0.617 0.614 0.785 1.084l2.935 9.672h9.058c0.978 0 1.628 0.47 1.949 1.41 0.32 0.94 0.075 1.696-0.735 2.267l-7.337 5.188 2.884 9.319c0.27 0.94 0 1.696-0.81 2.267s-1.602 0.554-2.378-0.050l-7.489-5.692-7.489 5.692z"></path>
</symbol>
<symbol id="icon-Vector-1" viewBox="0 0 32 32">
<path d="M8.51 31.534c-0.776 0.605-1.569 0.621-2.378 0.050s-1.079-1.326-0.81-2.267l2.884-9.319-7.337-5.188c-0.81-0.571-1.054-1.327-0.733-2.267 0.32-0.94 0.969-1.41 1.947-1.41h9.058l2.935-9.672c0.169-0.47 0.431-0.832 0.785-1.084 0.354-0.251 0.733-0.377 1.138-0.377s0.784 0.126 1.137 0.377c0.355 0.253 0.617 0.614 0.785 1.084l2.935 9.672h9.058c0.978 0 1.628 0.47 1.949 1.41 0.32 0.94 0.075 1.696-0.735 2.267l-7.337 5.188 2.884 9.319c0.27 0.94 0 1.696-0.81 2.267s-1.602 0.554-2.378-0.050l-7.489-5.692-7.489 5.692z"></path>
</symbol>
</defs>
</svg>
